<?xml version="1.0" encoding="UTF-8"?>
<svg version="1.1" xmlns="http://www.w3.org/2000/svg" width="500" height="500">
<path d="M0 0 C2.59252279 0.01073913 5.18435308 0.00001064 7.77685547 -0.01269531 C23.68271062 -0.02818529 39.27275447 1.07767135 54.71826172 5.07324219 C55.77456787 5.3375 56.83087402 5.60175781 57.91918945 5.87402344 C78.31057627 11.03663548 97.47739299 17.38337616 116.09326172 27.26074219 C117.18840088 27.83332764 117.18840088 27.83332764 118.30566406 28.41748047 C129.28612794 34.18311048 139.31413238 40.64118299 149.09326172 48.26074219 C150.44484375 49.29328125 150.44484375 49.29328125 151.82373047 50.34667969 C157.0873711 54.44713106 162.02690149 58.85042622 166.89672852 63.40527344 C169.12453642 65.48562222 171.36583644 67.47728099 173.75341797 69.37402344 C175.83008898 71.04853445 177.49608979 72.67401393 179.21826172 74.69824219 C179.81638672 75.40078125 180.41451172 76.10332031 181.03076172 76.82714844 C181.71138672 77.63023438 182.39201172 78.43332031 183.09326172 79.26074219 C183.89763672 80.17726563 184.70201172 81.09378906 185.53076172 82.03808594 C229.71417083 132.6865614 248.92799002 196.63554153 246.09326172 263.26074219 C245.66041031 268.89255663 244.75818604 274.3724954 243.58496094 279.89355469 C243.03967232 282.51873763 242.56768188 285.15241368 242.09716797 287.79199219 C235.78587918 321.92326105 222.28600363 354.9545202 202.09326172 383.26074219 C201.67383301 383.85532227 201.2544043 384.44990234 200.82226562 385.0625 C193.08204077 395.97131887 184.425225 405.6961483 175.09326172 415.26074219 C174.16311004 416.2303492 173.2333757 417.20035685 172.30419922 418.17089844 C166.60074322 424.02825722 160.516821 429.2118073 154.09326172 434.26074219 C152.57925781 435.48277344 152.57925781 435.48277344 151.03466797 436.72949219 C131.22740363 452.55692105 107.64997924 464.16220872 84.09326172 473.26074219 C83.08005859 473.65648437 82.06685547 474.05222656 81.02294922 474.45996094 C67.73913753 479.24743153 53.45998762 481.89629216 39.53076172 484.01074219 C38.77150391 484.12619385 38.01224609 484.24164551 37.22998047 484.3605957 C-14.12488983 491.65984936 -66.12623835 482.21981871 -111.90673828 458.26074219 C-112.56722168 457.91527344 -113.22770508 457.56980469 -113.90820312 457.21386719 C-142.28299626 442.20386065 -168.11312765 420.51227687 -187.90673828 395.26074219 C-188.69693359 394.2875 -189.48712891 393.31425781 -190.30126953 392.31152344 C-228.97083579 343.77665051 -246.38541895 278.67918462 -239.95043945 217.25756836 C-235.33112152 178.39623463 -222.42301421 139.54234219 -199.90673828 107.26074219 C-199.39030762 106.51421387 -198.87387695 105.76768555 -198.34179688 104.99853516 C-190.85496733 94.26967029 -182.83389315 84.36461241 -173.65673828 75.04150391 C-171.89117712 73.24490749 -170.14832232 71.42821769 -168.40673828 69.60839844 C-160.77464232 61.71331033 -152.73161288 54.78325985 -143.90673828 48.26074219 C-143.34519043 47.83841309 -142.78364258 47.41608398 -142.20507812 46.98095703 C-113.45345357 25.39443303 -80.81096544 12.16079054 -45.90673828 4.26074219 C-45.23748322 4.10158325 -44.56822815 3.94242432 -43.87869263 3.77844238 C-38.64513078 2.56146329 -33.46921008 1.70223534 -28.12548828 1.15136719 C-27.31164673 1.067276 -26.49780518 0.98318481 -25.65930176 0.89654541 C-17.108335 0.08324639 -8.58426868 -0.04207182 0 0 Z " fill="#FDFEFD" transform="translate(247.90673828125,-0.2607421875)"/>
<path d="M0 0 C6.73862227 1.43609983 13.36629557 3.14008287 20 5 C20 5.99 20 6.98 20 8 C13.67734974 7.42521361 9.26496991 6.0883233 3 4 C3 37.99 3 71.98 3 107 C5.64 107.33 8.28 107.66 11 108 C12.42186591 108.22981967 13.84179798 108.47284642 15.25708008 108.74023438 C16.35280083 108.94549744 16.35280083 108.94549744 17.47065735 109.15490723 C18.22928574 109.29972534 18.98791412 109.44454346 19.76953125 109.59375 C20.57235031 109.74533569 21.37516937 109.89692139 22.20231628 110.05310059 C23.88404807 110.37127187 25.56554935 110.69066379 27.24682617 111.01123047 C29.8221115 111.50183102 32.39829327 111.98750105 34.97460938 112.47265625 C36.61463869 112.78356228 38.25461461 113.09475017 39.89453125 113.40625 C41.04765556 113.62347717 41.04765556 113.62347717 42.22407532 113.84509277 C45.22736223 114.42010968 48.09513712 115.03171237 51 116 C50.94798206 112.43632291 50.85287319 108.87504319 50.75 105.3125 C50.73582031 104.30509766 50.72164063 103.29769531 50.70703125 102.25976562 C50.51570817 96.46267636 50.22452799 93.27849093 46 89 C41.83636252 82.0480442 41.8576056 74.32289567 43.5390625 66.48828125 C44.60156156 63.42338012 45.81175737 61.19425557 48.07128906 58.86254883 C50.78147787 54.84014835 50.60250226 51.51165767 50.609375 46.76171875 C50.62591125 45.88095169 50.64244751 45.00018463 50.65948486 44.09272766 C50.7079107 41.29091379 50.72932353 38.48964246 50.75 35.6875 C50.77816425 33.78317591 50.80809232 31.87887703 50.83984375 29.97460938 C50.91366814 25.31645093 50.96327579 20.6585927 51 16 C49.11861328 15.77582397 49.11861328 15.77582397 47.19921875 15.54711914 C43.69284857 15.12931874 40.39971523 14.41491813 37 13.4375 C36.05125 13.16808594 35.1025 12.89867187 34.125 12.62109375 C33.42375 12.41613281 32.7225 12.21117187 32 12 C32 11.01 32 10.02 32 9 C33.958964 9.30852185 35.91715713 9.6219418 37.875 9.9375 C38.96554688 10.11152344 40.05609375 10.28554687 41.1796875 10.46484375 C44 11 44 11 46 12 C53.19308567 12.41553682 59.31954328 11.21897125 66.25 9.375 C67.28616455 9.10864746 68.3223291 8.84229492 69.38989258 8.56787109 C77.40932299 6.48412534 85.38203663 4.23322475 93.31152344 1.82958984 C97.30393318 0.64332382 100.78269982 -0.36074666 105 0 C105 1.98 105 3.96 105 6 C109.455 5.505 109.455 5.505 114 5 C114 8.96 114 12.92 114 17 C116.64 17 119.28 17 122 17 C122 18.32 122 19.64 122 21 C125.3 21 128.6 21 132 21 C132.0231209 34.15149024 132.04091379 47.30297569 132.05181217 60.45448208 C132.05704156 66.56056369 132.0641402 72.66663144 132.07543945 78.77270508 C132.08626637 84.66005147 132.09227642 90.54738449 132.09487724 96.43474007 C132.09673185 98.68632277 132.10035313 100.93790469 132.10573006 103.18948174 C132.11293789 106.33133427 132.11399105 109.47313083 132.11352539 112.61499023 C132.11712067 113.55581955 132.12071594 114.49664886 132.12442017 115.46598816 C132.11405216 121.88594784 132.11405216 121.88594784 131 123 C128.6243148 123.0883967 126.27791326 123.11530305 123.90234375 123.09765625 C122.83905602 123.09553383 122.83905602 123.09553383 121.75428772 123.09336853 C119.48198288 123.08775443 117.20977525 123.07519963 114.9375 123.0625 C113.40039204 123.05748681 111.86328255 123.05292359 110.32617188 123.04882812 C106.55074358 123.03778042 102.77538829 123.02050641 99 123 C99.2172876 123.56920166 99.4345752 124.13840332 99.65844727 124.72485352 C100.64292904 127.33151983 101.60279406 129.94661582 102.5625 132.5625 C102.90474609 133.45775391 103.24699219 134.35300781 103.59960938 135.27539062 C105.52092353 140.57355996 106.5571264 144.37986006 105 150 C102.93805301 153.02848464 101.46739079 154.6491022 97.84375 155.515625 C93.49854236 155.83427356 93.49854236 155.83427356 91 155 C85.6777076 150.09984899 83.90507752 144.05780696 81.6875 137.3125 C81.14899414 135.74532227 81.14899414 135.74532227 80.59960938 134.14648438 C78 126.45659226 78 126.45659226 78 123 C69.7270481 122.76084849 69.7270481 122.76084849 62.0625 125.14453125 C60.64398414 126.62953384 60.64398414 126.62953384 59 129 C53.96096545 130.67967818 48.94859377 130.87064828 44.0625 128.6875 C42 127 42 127 40 124 C37.13251684 123.52089939 37.13251684 123.52089939 33.71435547 123.56762695 C33.05991014 123.55735316 32.40546482 123.54707937 31.73118782 123.53649426 C29.60976086 123.5065705 27.48879649 123.49705951 25.3671875 123.48828125 C23.42404663 123.46332581 23.42404663 123.46332581 21.44165039 123.43786621 C16.5862667 123.37987836 11.73060187 123.34776823 6.875 123.3125 C-3.97375 123.209375 -14.8225 123.10625 -26 123 C-26 89.34 -26 55.68 -26 21 C-22.7 21 -19.4 21 -16 21 C-16 19.68 -16 18.36 -16 17 C-14.02 17 -12.04 17 -10 17 C-10 13.04 -10 9.08 -10 5 C-7.36 5 -4.72 5 -2 5 C-1.34 3.35 -0.68 1.7 0 0 Z " fill="#161616" transform="translate(197,165)"/>
<path d="M0 0 C0 33.99 0 67.98 0 103 C-6.435 103.495 -6.435 103.495 -13 104 C-15.79885228 97.7900465 -15.79885228 97.7900465 -16 94 C-14.33000314 91.26085171 -12.37014838 89.30773117 -10.0859375 87.0625 C-5.36053452 82.39019143 -4.77604584 77.57796115 -4.5 71.1875 C-4.67088731 63.16434071 -7.04549731 57.56278266 -12.125 51.4375 C-14.04470232 49.80385007 -14.04470232 49.80385007 -17 49 C-16.21511269 52.14112324 -16.21511269 52.14112324 -13.6875 54.1875 C-8.99959662 59.0934454 -6.77750389 63.59559363 -6.5 70.4375 C-6.78587165 77.79869487 -9.60355486 84.88757829 -15 90 C-21.63038228 94.22042416 -28.36780042 97.01263862 -36.28125 95.58984375 C-43.31653766 93.5780406 -49.63296855 89.75238006 -53.4375 83.375 C-56.62170414 76.49711906 -57.28579382 69.01617394 -54.8125 61.75 C-51.97435547 55.2497335 -47.88661455 51.24898137 -41.6875 47.9609375 C-37.40338675 46.42911794 -33.14367165 46.33765019 -28.625 46.23828125 C-27.75875 46.15964844 -26.8925 46.08101562 -26 46 C-25.67 45.34 -25.34 44.68 -25 44 C-32.17544118 43.64386597 -37.4121111 44.11057505 -44 47 C-45.98 47.495 -45.98 47.495 -48 48 C-48 36.12 -48 24.24 -48 12 C-36.66454749 8.69382635 -25.32677018 5.50361559 -13.875 2.625 C-12.83859375 2.36251465 -11.8021875 2.1000293 -10.734375 1.82958984 C-9.28417969 1.46921631 -9.28417969 1.46921631 -7.8046875 1.1015625 C-6.94858887 0.88838379 -6.09249023 0.67520508 -5.21044922 0.45556641 C-3 0 -3 0 0 0 Z " fill="#FBFBFB" transform="translate(299,169)"/>
<path d="M0 0 C1.77362663 -0.0149778 1.77362663 -0.0149778 3.58308411 -0.03025818 C6.08017491 -0.04541064 8.57732616 -0.05248486 11.07446289 -0.05200195 C14.86513298 -0.05854302 18.65315441 -0.11300597 22.44335938 -0.16992188 C24.87889737 -0.17872912 27.31444771 -0.18467987 29.75 -0.1875 C30.86916306 -0.20905655 31.98832611 -0.2306131 33.1414032 -0.25282288 C42.23173834 -0.17496506 50.41901577 2.24666322 57.0118866 8.79222107 C64.50624349 17.6413863 63.70703125 25.65446566 63.70703125 37.50390625 C31.69703125 37.50390625 -0.31296875 37.50390625 -33.29296875 37.50390625 C-33.29296875 15.60087595 -33.29296875 15.60087595 -25.359375 7.5390625 C-23.37888162 5.96007265 -21.52898368 4.69461367 -19.29296875 3.50390625 C-18.34566895 2.9948877 -17.39836914 2.48586914 -16.42236328 1.96142578 C-11.14042543 -0.26758908 -5.64816589 0.01669751 0 0 Z " fill="#020202" transform="translate(235.29296875,99.49609375)"/>
<path d="M0 0 C1.75244019 -0.00430527 1.75244019 -0.00430527 3.5402832 -0.00869751 C6.00114428 -0.01073165 8.46202176 -0.00524748 10.92285156 0.00732422 C14.67550029 0.02338614 18.42707201 0.00745233 22.1796875 -0.01171875 C24.57812736 -0.0097362 26.97656656 -0.0058923 29.375 0 C30.48979736 -0.00607269 31.60459473 -0.01214539 32.75317383 -0.0184021 C41.22710929 0.05757591 47.92037747 1.22290573 54.4375 7.0859375 C55.15421875 7.70855469 55.8709375 8.33117187 56.609375 8.97265625 C64.78637822 18.51761677 62.6875 24.12553088 62.6875 37.3984375 C31.0075 37.3984375 -0.6725 37.3984375 -33.3125 37.3984375 C-33.3125 15.80355477 -33.3125 15.80355477 -26.48046875 8.41796875 C-18.52864857 0.81119797 -10.60125111 -0.05774874 0 0 Z " fill="#020202" transform="translate(235.3125,380.6015625)"/>
<path d="M0 0 C1.66279243 -0.02398109 1.66279243 -0.02398109 3.35917664 -0.04844666 C4.54880508 -0.05380936 5.73843353 -0.05917206 6.96411133 -0.06469727 C8.19849442 -0.07372574 9.4328775 -0.08275421 10.70466614 -0.09205627 C13.31626971 -0.10655608 15.92790958 -0.11544483 18.53955078 -0.11914062 C22.51421929 -0.12556115 26.48780823 -0.18018 30.4621582 -0.23071289 C33.00446837 -0.24018084 35.54678803 -0.24741409 38.08911133 -0.25219727 C39.26861862 -0.27172958 40.44812592 -0.2912619 41.66337585 -0.31138611 C50.57833585 -0.26319325 57.19331451 1.72911473 64.01489258 7.58764648 C64.62333008 8.31983398 65.23176758 9.05202148 65.85864258 9.80639648 C66.48770508 10.53858398 67.11676758 11.27077148 67.76489258 12.02514648 C73.41140841 20.10741424 71.35864258 25.21342261 71.35864258 36.30639648 C39.67864258 36.30639648 7.99864258 36.30639648 -24.64135742 36.30639648 C-24.64135742 14.75037111 -24.64135742 14.75037111 -18.64135742 8.30639648 C-13.08176072 3.14778434 -7.70850735 0.08443749 0 0 Z " fill="#010000" transform="translate(417.641357421875,241.693603515625)"/>
<path d="M0 0 C1.84096252 -0.00717545 1.84096252 -0.00717545 3.71911621 -0.01449585 C6.30087575 -0.01788178 8.88267894 -0.00877171 11.46435547 0.01220703 C15.39518685 0.03898713 19.32316271 0.01241003 23.25390625 -0.01953125 C25.77344374 -0.01622693 28.29297948 -0.00982023 30.8125 0 C32.55823303 -0.01518173 32.55823303 -0.01518173 34.3392334 -0.03067017 C42.82082404 0.08996026 49.70206078 1.76650098 56.05236816 7.65365601 C64.51573999 16.56124671 63.90625 23.84399884 63.90625 36.6640625 C32.22625 36.6640625 0.54625 36.6640625 -32.09375 36.6640625 C-32.09375 15.12790086 -32.09375 15.12790086 -25.00549316 7.44857788 C-17.7427397 0.66916551 -9.52637143 -0.0828459 0 0 Z " fill="#000000" transform="translate(44.09375,241.3359375)"/>
<path d="M0 0 C6.7680274 3.71577975 12.12259822 9.27289329 14.52734375 16.703125 C16.2507987 25.07826144 15.59117687 32.72725079 11 40 C6.14556626 46.89452488 0.90777597 50.36407468 -7 53 C-17.12861578 53.92769604 -24.19325966 52.14777388 -32.25 46 C-38.32840058 40.31061706 -41.20448365 32.54687614 -41.5625 24.3125 C-41.16066728 16.7645611 -38.07646693 10.17797436 -32.953125 4.640625 C-22.77117027 -3.91221698 -11.94599588 -5.34002128 0 0 Z " fill="#020202" transform="translate(263,324)"/>
<path d="M0 0 C0.68707031 0.44472656 1.37414062 0.88945313 2.08203125 1.34765625 C3.01015625 1.94578125 3.93828125 2.54390625 4.89453125 3.16015625 C11.50586453 9.77148953 13.37132737 16.30265855 13.40112305 25.50952148 C13.29323768 31.29565737 12.16328443 35.49545024 9.08203125 40.34765625 C8.42203125 41.39953125 7.76203125 42.45140625 7.08203125 43.53515625 C1.57629133 49.52768415 -6.42055672 52.69394074 -14.41796875 53.09765625 C-22.23000894 52.68501547 -29.30005412 49.95127082 -34.89453125 44.37890625 C-36.42588647 42.41756459 -37.70754242 40.52083092 -38.91796875 38.34765625 C-39.45421875 37.43757813 -39.99046875 36.5275 -40.54296875 35.58984375 C-42.14665811 31.80841712 -42.41521899 28.51320621 -42.35546875 24.47265625 C-42.34862061 23.76520264 -42.34177246 23.05774902 -42.3347168 22.32885742 C-42.10925409 15.00343049 -40.23080061 10.95700501 -35.48046875 5.59765625 C-34.21203125 4.48390625 -34.21203125 4.48390625 -32.91796875 3.34765625 C-32.13421875 2.64640625 -31.35046875 1.94515625 -30.54296875 1.22265625 C-21.0628753 -5.54883907 -10.11240708 -5.86486937 0 0 Z " fill="#020202" transform="translate(264.91796875,43.65234375)"/>
<path d="M0 0 C6.84663546 4.03951492 12.80649024 10.25305897 15.1640625 17.96875 C16.54315142 25.21572707 16.0829051 32.50073227 12.5625 39.0625 C8.1893052 45.08008716 3.09085753 51.37246056 -4.4375 53.0625 C-13.86953191 54.08620842 -22.54921689 54.00882028 -30.4375 48.0625 C-36.08735571 43.11273511 -39.90534717 36.59476793 -40.78515625 29.1015625 C-41.0550337 19.78492348 -38.93831578 13.19416104 -33.1875 5.890625 C-24.80057129 -2.87072017 -11.00233903 -4.98704152 0 0 Z " fill="#020202" transform="translate(453.4375,183.9375)"/>
<path d="M0 0 C6.84663546 4.03951492 12.80649024 10.25305897 15.1640625 17.96875 C16.54435509 25.22205223 16.07612022 32.49258791 12.5625 39.0625 C7.8725472 45.63620196 2.68021602 51.34782734 -5.4375 53.0625 C-14.74035914 54.11661935 -22.74822418 53.76093143 -30.4375 48.0625 C-36.30049396 42.93714953 -39.95046289 36.3961363 -40.8203125 28.65625 C-41.04942797 21.50784721 -40.64319397 15.95047156 -36.4375 10.0625 C-35.695 9.010625 -34.9525 7.95875 -34.1875 6.875 C-25.26726159 -2.24797111 -11.9209987 -5.40344333 0 0 Z " fill="#020202" transform="translate(72.4375,183.9375)"/>
<path d="M0 0 C1.65 0 3.3 0 5 0 C5 7.92 5 15.84 5 24 C5.99 24 6.98 24 8 24 C8 17.4 8 10.8 8 4 C10.31 4 12.62 4 15 4 C15 35.68 15 67.36 15 100 C4.44 100 -6.12 100 -17 100 C-17.33 98.68 -17.66 97.36 -18 96 C-9.42 96 -0.84 96 8 96 C8 75.54 8 55.08 8 34 C7.01 34 6.02 34 5 34 C5 53.47 5 72.94 5 93 C2.69 93 0.38 93 -2 93 C-1.01 92.505 -1.01 92.505 0 92 C0 61.64 0 31.28 0 0 Z " fill="#EDEDED" transform="translate(311,185)"/>
<path d="M0 0 C2.31 0 4.62 0 7 0 C7 30.36 7 60.72 7 92 C22.45039049 91.92131397 22.45039049 91.92131397 37.90063477 91.81982422 C48.105249 91.77647697 57.92167225 91.97803144 68.0144043 93.58154297 C72.03027879 94.14440247 75.58792354 93.98906501 79.625 93.625 C81.04271806 93.51115667 82.46069692 93.40051912 83.87890625 93.29296875 C84.56484863 93.23931152 85.25079102 93.1856543 85.95751953 93.13037109 C90.96359941 92.81083408 95.98704264 92.92153632 101 93 C101 93.99 101 94.98 101 96 C99.89140625 96.01417969 98.7828125 96.02835937 97.640625 96.04296875 C96.17704216 96.08987846 94.71350177 96.13812581 93.25 96.1875 C92.52039063 96.19330078 91.79078125 96.19910156 91.0390625 96.20507812 C87.11040101 96.3657961 85.40728677 96.56469518 82.671875 99.48828125 C82.12015625 100.31714844 81.5684375 101.14601563 81 102 C77.39427296 103.20190901 74.7897565 103.32670315 71 103 C68.0625 101.1875 68.0625 101.1875 66 99 C66 98.01 66 97.02 66 96 C44.22 96 22.44 96 0 96 C0 64.32 0 32.64 0 0 Z " fill="#EEEEEE" transform="translate(174,189)"/>
<path d="M0 0 C4.6253202 2.04795804 7.94450259 4.65663966 11.0625 8.625 C12.80297663 14.89071586 13.44530272 22.05209138 10.375 28 C7.14344842 32.08195989 3.92656734 34.35781089 -1 36 C-6.94583947 36.59919312 -11.78574382 36.14823015 -17 33 C-21.48854546 28.22775415 -23.68656342 24.25974047 -24.3125 17.75 C-23.83974177 12.07690128 -22.22072386 8.17004344 -18.1171875 4.16015625 C-12.42193814 -0.17762328 -7.03967351 -1.51717102 0 0 Z " fill="#FAFAFA" transform="translate(273,222)"/>
<path d="M0 0 C0 33.66 0 67.32 0 102 C-7.92 102.495 -7.92 102.495 -16 103 C-16 102.67 -16 102.34 -16 102 C-11.05 101.505 -11.05 101.505 -6 101 C-6 68 -6 35 -6 1 C-2 0 -2 0 0 0 Z " fill="#EFEFEF" transform="translate(308,173)"/>
<path d="M0 0 C1.65 0 3.3 0 5 0 C5 33 5 66 5 100 C3.35 100 1.7 100 0 100 C0 67 0 34 0 0 Z " fill="#FEFEFE" transform="translate(191,174)"/>
<path d="M0 0 C4.81941583 4.02799776 6.20424222 8.9915707 8.25 14.75 C8.61351562 15.71421875 8.97703125 16.6784375 9.3515625 17.671875 C11.40701522 23.35914268 12.53164605 27.95166308 12 34 C10.9375 36 10.9375 36 9 37 C5.5 37.4375 5.5 37.4375 2 37 C-1.96913749 32.74948434 -3.32658449 27.07506913 -5.1875 21.6875 C-5.55552734 20.66720703 -5.92355469 19.64691406 -6.30273438 18.59570312 C-8.17717455 13.2158164 -9.60935611 8.70789266 -9 3 C-6.84532543 -0.71082843 -4.00794956 -0.57256422 0 0 Z " fill="#F9F9F9" transform="translate(287,280)"/>
<path d="M0 0 C6.53149729 3.71398865 10.86296821 7.61813904 13.1875 14.8125 C14.58118357 22.02839436 12.17407472 27.82740619 8.1875 33.8125 C4.18678222 38.40313595 -0.37584459 40.47404151 -6.390625 41.06640625 C-12.55276023 41.32737099 -17.04053938 40.88059643 -21.8125 36.8125 C-27.16405295 31.69631628 -29.77750479 26.91991255 -30.1875 19.4375 C-30.02237126 13.65799396 -28.1263543 9.23372573 -24.12890625 5.05078125 C-16.72036132 -1.52928124 -9.63969995 -3.00252949 0 0 Z M-24.2578125 9.74609375 C-26.68335516 14.09680488 -27.44975073 17.80552999 -26.8125 22.8125 C-24.69860166 28.94280519 -22.3434223 33.37334811 -16.625 36.625 C-10.51242009 38.52891833 -5.40792558 38.82639348 0.5 36.125 C4.94496055 33.62803013 7.5635749 30.68427531 9.1875 25.8125 C9.89957957 18.9460184 9.97146358 13.1183566 5.72265625 7.4375 C1.59569715 3.06901403 -2.17848864 1.5735538 -8.1875 1.1875 C-15.02455509 1.46963432 -20.14957377 4.24993653 -24.2578125 9.74609375 Z " fill="#141414" transform="translate(275.8125,220.1875)"/>
<path d="M0 0 C27.86094207 -0.79729246 52.27931326 9.79596295 72.6015625 28.67578125 C89.52221613 45.07283159 103.41237094 68.39415718 104.2421875 92.56640625 C104.2861416 96.38502238 104.18258905 100.18591764 104 104 C103.34 104 102.68 104 102 104 C101.93683594 102.72769531 101.87367188 101.45539063 101.80859375 100.14453125 C100.16168909 74.33642078 90.93382806 51.71382466 73 33 C72.53223145 32.51160645 72.06446289 32.02321289 71.58251953 31.52001953 C60.0462784 19.73032168 46.42877018 12.5038303 31 7 C29.99324219 6.6390625 28.98648437 6.278125 27.94921875 5.90625 C18.98389028 3.15134112 9.31431205 2.63773668 0 2 C0 1.34 0 0.68 0 0 Z " fill="#202020" transform="translate(340,60)"/>
<path d="M0 0 C0.66 0 1.32 0 2 0 C3.14113882 27.51412497 -8.71638273 52.05866252 -26.77734375 72.125 C-37.26019492 83.36234597 -49.799599 91.21397543 -64 97 C-64.89976562 97.37769531 -65.79953125 97.75539063 -66.7265625 98.14453125 C-78.09628455 102.62198816 -89.8059162 104.61311036 -102 104 C-102 103.34 -102 102.68 -102 102 C-101.06542969 101.91363281 -100.13085938 101.82726562 -99.16796875 101.73828125 C-69.47282921 98.69321593 -43.99011767 87.46281478 -24 65 C-21.44746039 61.7842772 -19.1828873 58.47456997 -17 55 C-16.49082031 54.2471875 -15.98164063 53.494375 -15.45703125 52.71875 C-10.66676863 45.33017013 -7.80296943 37.29512655 -5 29 C-4.67902344 28.06285156 -4.35804688 27.12570312 -4.02734375 26.16015625 C-1.42383228 17.66930728 -0.82331585 8.80463651 0 0 Z " fill="#1D1D1D" transform="translate(432,296)"/>
<path d="M0 0 C1.0415625 0.00902344 2.083125 0.01804688 3.15625 0.02734375 C4.31640625 0.04474609 4.31640625 0.04474609 5.5 0.0625 C5.5 0.7225 5.5 1.3825 5.5 2.0625 C4.38625 2.16046875 3.2725 2.2584375 2.125 2.359375 C-15.15328481 3.99602419 -29.27639019 7.6402883 -44.5 16.0625 C-45.41394531 16.54589844 -46.32789063 17.02929688 -47.26953125 17.52734375 C-64.42236261 27.08748401 -76.57673793 41.85477763 -85.5 59.0625 C-85.98339844 59.98804688 -86.46679688 60.91359375 -86.96484375 61.8671875 C-92.33165921 72.86181856 -95.26642859 85.20647992 -96.0625 97.375 C-96.14628906 98.62925781 -96.23007813 99.88351563 -96.31640625 101.17578125 C-96.40728516 102.60470703 -96.40728516 102.60470703 -96.5 104.0625 C-97.16 104.0625 -97.82 104.0625 -98.5 104.0625 C-100.31715276 77.04749561 -88.12280975 52.83583233 -70.92578125 32.7421875 C-53.5157155 13.50981213 -26.18502453 -0.2975571 0 0 Z " fill="#1F1F1F" transform="translate(154.5,59.9375)"/>
<path d="M0 0 C0.33 0 0.66 0 1 0 C1.13535156 1.27230469 1.27070312 2.54460937 1.41015625 3.85546875 C5.0504108 34.79763238 17.26221402 61.40471572 42 81 C58.55145547 92.56532951 76.0455535 98.65387077 96 101 C97.62505405 101.20791133 99.25006484 101.4161615 100.875 101.625 C101.90625 101.74875 102.9375 101.8725 104 102 C104 102.66 104 103.32 104 104 C77.69643392 105.32252567 52.57713601 94.22696125 33.18457031 76.95214844 C18.38426794 63.28358701 9.20004677 46.99757922 3 28 C2.48953125 26.46085937 2.48953125 26.46085937 1.96875 24.890625 C-0.4484515 16.60947171 -0.29257747 8.53892778 0 0 Z " fill="#1C1C1C" transform="translate(56,296)"/>
<path d="M0 0 C0.99 0 1.98 0 3 0 C3 30.36 3 60.72 3 92 C4.65 92 6.3 92 8 92 C8 92.33 8 92.66 8 93 C5.36 93 2.72 93 0 93 C0 62.31 0 31.62 0 0 Z " fill="#FDFDFD" transform="translate(184,185)"/>
<path d="M0 0 C5.07156074 0.8543882 7.11210054 3.99576965 10 8 C13.98390494 14.50704473 13.87977858 21.53848169 13 29 C11.31464968 34.3801568 8.75388267 38.49213579 4.6875 42.375 C3.800625 43.24125 2.91375 44.1075 2 45 C2 46.32 2 47.64 2 49 C1.01 49.495 1.01 49.495 0 50 C0.66 52.97 1.32 55.94 2 59 C-0.31 59.66 -2.62 60.32 -5 61 C-5.58727236 59.1116935 -6.14393022 57.21384746 -6.6875 55.3125 C-7.00074219 54.25675781 -7.31398438 53.20101562 -7.63671875 52.11328125 C-8 49 -8 49 -6.859375 46.28125 C-4.90317458 43.88120578 -3.25023179 42.68773478 -0.5625 41.1875 C5.20083246 37.5701889 6.91697406 33.24907781 9 27 C9.70920218 19.80334184 9.2660247 13.98333816 5 8 C3.35216394 6.31471312 1.68997323 4.64302953 0 3 C0 2.01 0 1.02 0 0 Z " fill="#171717" transform="translate(282,218)"/>
<path d="M0 0 C2.475 0.99 2.475 0.99 5 2 C9.97644969 3.9227192 14.72517737 4.55457053 20 5 C21.25664978 7.90600261 22 9.79604584 22 13 C19.83432456 13.48362696 17.66740259 13.96167317 15.5 14.4375 C13.69015625 14.83775391 13.69015625 14.83775391 11.84375 15.24609375 C7.9274001 16.01423961 3.96015162 16.50498105 0 17 C0 11.39 0 5.78 0 0 Z " fill="#F9F9F9" transform="translate(251,263)"/>
<path d="M0 0 C0.99 0 1.98 0 3 0 C3 20.46 3 40.92 3 62 C1.68 62 0.36 62 -1 62 C-0.67 41.54 -0.34 21.08 0 0 Z " fill="#010101" transform="translate(316,219)"/>
<path d="M0 0 C0.33 0 0.66 0 1 0 C1.61598212 9.15417874 -0.01325434 14.94550735 -4.625 22.75 C-9.84310307 27.69346607 -16.57874541 30.67247084 -23.76171875 31.14453125 C-29.05971517 30.80242677 -33.62550065 28.9163329 -38 26 C-37.505 24.515 -37.505 24.515 -37 23 C-36.071875 23.495 -35.14375 23.99 -34.1875 24.5 C-27.99491733 27.13247441 -20.98569211 26.89503076 -14.625 24.875 C-9.38010362 22.57968747 -6.82916755 18.59910884 -4.25 13.625 C-2.87403055 9.6346886 -2.36765707 6.1912906 -2 2 C-1.34 2 -0.68 2 0 2 C0 1.34 0 0.68 0 0 Z " fill="#E9E9E9" transform="translate(291,234)"/>
<path d="M0 0 C0.66 0.66 1.32 1.32 2 2 C1.18208984 2.96873047 1.18208984 2.96873047 0.34765625 3.95703125 C-10.03926498 16.93624393 -16.56674083 31.77376322 -20 48 C-20.27650391 49.21623047 -20.27650391 49.21623047 -20.55859375 50.45703125 C-21.12776625 53.73606929 -21.34528835 56.99226471 -21.5625 60.3125 C-21.64628906 61.56675781 -21.73007812 62.82101563 -21.81640625 64.11328125 C-21.90728516 65.54220703 -21.90728516 65.54220703 -22 67 C-22.66 67 -23.32 67 -24 67 C-25.67118887 42.15499215 -15.44327169 19.0044696 0 0 Z " fill="#1E1E1E" transform="translate(80,97)"/>
<path d="M0 0 C8.46953357 -0.41352153 14.02732119 0.2736518 21.1875 5.1875 C25.80608156 9.80608156 28.20323164 14.21015348 28.375 20.8125 C28.31457693 24.2264034 28.00493823 24.99259265 26 28 C25.34 27.67 24.68 27.34 24 27 C23.7265625 24.5234375 23.7265625 24.5234375 23.625 21.375 C23.21977917 15.68840105 22.5494714 12.48354282 19 8 C14.07887993 4.25994875 10.26724823 3.53069406 4.13671875 3.37109375 C3.07904297 3.18740234 3.07904297 3.18740234 2 3 C1.34 2.01 0.68 1.02 0 0 Z " fill="#1D1D1D" transform="translate(261,219)"/>
<path d="M0 0 C0.33 0 0.66 0 1 0 C1 11.55 1 23.1 1 35 C3.64 33.68 6.28 32.36 9 31 C14.16239286 29.70940179 18.85630944 29.28543648 24 31 C23.67 31.99 23.34 32.98 23 34 C22.14277344 34.02578125 21.28554688 34.0515625 20.40234375 34.078125 C13.37009374 34.42696266 8.83162741 35.06999022 3 39 C2.01 39 1.02 39 0 39 C0 26.13 0 13.26 0 0 Z " fill="#202020" transform="translate(250,182)"/>
<path d="M0 0 C3.96 0 7.92 0 12 0 C12 0.33 12 0.66 12 1 C9.10517871 1.48603652 6.20935673 1.96386943 3.3125 2.4375 C2.51521484 2.57220703 1.71792969 2.70691406 0.89648438 2.84570312 C-10.69078487 4.72348194 -22.2757174 5.19384646 -34 5.1875 C-35.24934326 5.18814453 -36.49868652 5.18878906 -37.78588867 5.18945312 C-48.6118652 5.12855917 -59.26025691 4.3145915 -70 3 C-70 2.67 -70 2.34 -70 2 C-67.45886142 1.77666953 -64.91827416 1.57097909 -62.375 1.375 C-61.66214844 1.31054688 -60.94929687 1.24609375 -60.21484375 1.1796875 C-59.51230469 1.128125 -58.80976563 1.0765625 -58.0859375 1.0234375 C-57.4470459 0.97106934 -56.8081543 0.91870117 -56.14990234 0.86474609 C-54 1 -54 1 -51.15039062 1.97265625 C-47.79365336 3.06728973 -45.02900576 3.31345698 -41.5078125 3.4140625 C-40.30898437 3.45273437 -39.11015625 3.49140625 -37.875 3.53125 C-36.6375 3.5621875 -35.4 3.593125 -34.125 3.625 C-32.86429688 3.66367187 -31.60359375 3.70234375 -30.3046875 3.7421875 C-27.20326863 3.83616989 -24.10185114 3.92183411 -21 4 C-21 3.34 -21 2.68 -21 2 C-14.07 2 -7.14 2 0 2 C0 1.34 0 0.68 0 0 Z " fill="#DCFEF4" transform="translate(285,481)"/>
<path d="M0 0 C4.48980718 0.70479531 8.54355296 2.28493198 12.75 3.9375 C24.39544058 8.37012903 35.64737173 9.74741418 48 11 C48 11.66 48 12.32 48 13 C31.75700502 13.8166869 14.39183949 9.77233709 0 2 C0 1.34 0 0.68 0 0 Z " fill="#1F1F1F" transform="translate(112,387)"/>
<path d="M0 0 C1.04330452 2.71259175 1.05729472 3.83957479 0.0625 6.625 C-2.41258096 14.48702189 -1.03958918 21.5095838 2 29 C1.01 29.66 0.02 30.32 -1 31 C-5.58495394 23.83600946 -5.82749843 17.38207231 -5 9 C-4.29683595 5.96788494 -3.42732269 3.79974835 -2 1 C-1.34 0.67 -0.68 0.34 0 0 Z " fill="#090909" transform="translate(245,225)"/>
<path d="M0 0 C0.66 0 1.32 0 2 0 C2.47753182 11.51382275 0.86392018 22.2666262 -2.9375 33.125 C-3.19031738 33.8476001 -3.44313477 34.5702002 -3.70361328 35.31469727 C-5.04692013 38.9642009 -6.44086887 42.0512698 -9 45 C-10.3092017 41.07239489 -9.32881352 39.77463463 -7.75 36 C-2.99956377 24.03837526 -1.19112309 12.73801044 0 0 Z " fill="#272727" transform="translate(432,296)"/>
<path d="M0 0 C15.94059815 -0.45616974 30.31364147 2.87595861 45 9 C44.67 9.66 44.34 10.32 44 11 C39.93401817 10.32486496 36.33924366 9.0462444 32.5 7.5625 C21.90033302 3.72316342 11.18423008 2.7657671 0 2 C0 1.34 0 0.68 0 0 Z " fill="#252525" transform="translate(340,60)"/>
<path d="M0 0 C3 1 3 1 3.94921875 2.7421875 C4.31466797 3.79792969 4.31466797 3.79792969 4.6875 4.875 C5.06455078 5.92300781 5.06455078 5.92300781 5.44921875 6.9921875 C6 9 6 9 6 12 C3.69 12.66 1.38 13.32 -1 14 C-1.99 10.04 -2.98 6.08 -4 2 C-2.68 1.34 -1.36 0.68 0 0 Z " fill="#ECECEC" transform="translate(278,265)"/>
<path d="M0 0 C4.65586764 1.35737531 8.57675625 3.31380782 12.625 5.9375 C13.22602539 6.32502441 13.82705078 6.71254883 14.44628906 7.11181641 C21.64910967 11.90171104 29.17213531 17.75820297 34 25 C31 25 31 25 29.37890625 23.56640625 C28.77949219 22.90511719 28.18007813 22.24382812 27.5625 21.5625 C19.5664118 13.28815965 10.24582737 7.14308264 0 2 C0 1.34 0 0.68 0 0 Z " fill="#1C1C1C" transform="translate(384,70)"/>
<path d="M0 0 C1.88179342 2.82269014 2.6753599 4.80827832 3.62109375 8.015625 C3.91556396 9.01287598 4.21003418 10.01012695 4.51342773 11.03759766 C4.81837158 12.09769043 5.12331543 13.1577832 5.4375 14.25 C5.74953369 15.32942871 6.06156738 16.40885742 6.38305664 17.52099609 C12.25130719 38.15467138 12.25130719 38.15467138 12 48 C11.34 48 10.68 48 10 48 C9.96261719 47.31035156 9.92523438 46.62070313 9.88671875 45.91015625 C9.49125361 40.25733104 8.66739741 35.38561817 6.69140625 30.078125 C6.00764741 28.02298544 5.67757529 26.14758263 5.4375 24 C5.293125 23.01 5.14875 22.02 5 21 C4.34 20.67 3.68 20.34 3 20 C3.33 17.69 3.66 15.38 4 13 C3.34 13 2.68 13 2 13 C-0.28571429 4.57142857 -0.28571429 4.57142857 0 0 Z " fill="#DFFEF4" transform="translate(479,161)"/>
<path d="M0 0 C0.33 0 0.66 0 1 0 C1.14695313 1.29550781 1.29390625 2.59101563 1.4453125 3.92578125 C2.99267323 16.51074363 5.78039746 28.05128729 10 40 C9.01 40 8.02 40 7 40 C6.01644151 36.93889304 5.03893981 33.8758844 4.0625 30.8125 C3.64581055 29.51602539 3.64581055 29.51602539 3.22070312 28.19335938 C2.95322266 27.35224609 2.68574219 26.51113281 2.41015625 25.64453125 C2.16402588 24.87471924 1.91789551 24.10490723 1.66430664 23.31176758 C0.15331066 18.05354598 -0.12581941 13.13783959 -0.0625 7.6875 C-0.05798828 6.94693359 -0.05347656 6.20636719 -0.04882812 5.44335938 C-0.03712175 3.62887101 -0.01918898 1.81442466 0 0 Z " fill="#252525" transform="translate(56,296)"/>
<path d="M0 0 C0.99 0 1.98 0 3 0 C6.64044611 11.9614658 8.77847659 22.45787719 8 35 C7.34 35 6.68 35 6 35 C5.96036133 34.42668945 5.92072266 33.85337891 5.87988281 33.26269531 C4.83731538 18.37122493 4.83731538 18.37122493 0.8046875 4.08203125 C0 2 0 2 0 0 Z " fill="#212121" transform="translate(436,129)"/>
<path d="M0 0 C-2.92366271 0.74204637 -5.84882863 1.47650917 -8.77734375 2.19921875 C-10.64877289 2.66424054 -12.51767055 3.14025557 -14.37890625 3.64453125 C-20.59130604 5.23481407 -26.61392926 5.19449962 -33 5 C-33 4.34 -33 3.68 -33 3 C-31.49373047 2.83564453 -31.49373047 2.83564453 -29.95703125 2.66796875 C-22.00305296 1.75726755 -14.40901251 0.55073953 -6.671875 -1.609375 C-3.66017162 -2.04968251 -2.50419416 -1.6456133 0 0 Z " fill="#242424" transform="translate(363,395)"/>
<path d="M0 0 C1.051875 0.32484375 1.051875 0.32484375 2.125 0.65625 C7.96771693 2.3709604 12.91604388 3.34437487 19 3 C18.34 4.32 17.68 5.64 17 7 C9.88658735 7.45164525 5.28453206 6.32797915 -1 3 C-0.67 2.01 -0.34 1.02 0 0 Z " fill="#1A1A1A" transform="translate(254,261)"/>
<path d="M0 0 C2 3 2 3 1.57421875 5.86328125 C1.13529297 7.57064453 1.13529297 7.57064453 0.6875 9.3125 C-1.02311791 16.57127246 -1.67105172 23.53627698 -2 31 C-2.66 31 -3.32 31 -4 31 C-4.57252648 19.93115479 -3.11895992 10.59610938 0 0 Z " fill="#343434" transform="translate(60,133)"/>
<path d="M0 0 C0 0.66 0 1.32 0 2 C-1.2065625 2.13277344 -2.413125 2.26554687 -3.65625 2.40234375 C-5.27083664 2.58069925 -6.88541979 2.75908636 -8.5 2.9375 C-9.68722656 3.06801758 -9.68722656 3.06801758 -10.8984375 3.20117188 C-12.07792969 3.33168945 -12.07792969 3.33168945 -13.28125 3.46484375 C-14.06628906 3.54976074 -14.85132813 3.63467773 -15.66015625 3.72216797 C-17.21323762 3.90658018 -18.76326412 4.11897751 -20.30859375 4.35986328 C-22.19559514 4.64948217 -24.09815079 4.83379858 -26 5 C-26.66 4.34 -27.32 3.68 -28 3 C-18.56403855 0.98827218 -9.70835475 -0.49644996 0 0 Z " fill="#2D2D2D" transform="translate(160,60)"/>
<path d="M0 0 C-0.99 0 -1.98 0 -3 0 C-3 0.66 -3 1.32 -3 2 C-4.11375 2.2475 -5.2275 2.495 -6.375 2.75 C-10.59340337 3.80087434 -14.51594219 5.32277435 -18.52734375 6.984375 C-20.85558367 7.94068207 -23.19830448 8.82471666 -25.5625 9.6875 C-28.78655867 10.65043665 -28.78655867 10.65043665 -30 12 C-31.66617115 12.04063832 -33.33388095 12.042721 -35 12 C-32.56063252 9.56063252 -30.44811822 8.87626838 -27.22265625 7.65234375 C-26.06958984 7.21212891 -24.91652344 6.77191406 -23.72851562 6.31835938 C-22.51873047 5.86267578 -21.30894531 5.40699219 -20.0625 4.9375 C-18.25362305 4.24817383 -18.25362305 4.24817383 -16.40820312 3.54492188 C-3.90113489 -1.21069703 -3.90113489 -1.21069703 0 0 Z " fill="#DFFEF5" transform="translate(182,11)"/>
<path d="M0 0 C0 0.99 0 1.98 0 3 C-1.8359375 4.7265625 -1.8359375 4.7265625 -4.375 6.625 C-13.85157567 13.27420414 -13.85157567 13.27420414 -21 22 C-21.66 22 -22.32 22 -23 22 C-21.42840852 18.14245727 -18.98922513 15.85637068 -16 13 C-15.48308594 12.45085937 -14.96617188 11.90171875 -14.43359375 11.3359375 C-10.0803536 6.75038987 -5.36800872 3.32305302 0 0 Z " fill="#1B1B1B" transform="translate(104,76)"/>
<path d="M0 0 C0.33 0.99 0.66 1.98 1 3 C0.3503125 3.58007812 0.3503125 3.58007812 -0.3125 4.171875 C-0.869375 4.69265625 -1.42625 5.2134375 -2 5.75 C-2.556875 6.26046875 -3.11375 6.7709375 -3.6875 7.296875 C-5.40694193 9.1696916 -5.40694193 9.1696916 -5 13 C-7.64 12.67 -10.28 12.34 -13 12 C-12.7734375 10.16015625 -12.7734375 10.16015625 -12 8 C-10.0390625 6.62109375 -10.0390625 6.62109375 -7.625 5.4375 C-4.57091619 3.92040625 -2.28872644 2.54713104 0 0 Z " fill="#111111" transform="translate(289,254)"/>
<path d="M0 0 C0.33 0 0.66 0 1 0 C1 2.31 1 4.62 1 7 C0.34 7 -0.32 7 -1 7 C-1.60601609 9.856933 -2.08110347 12.66041394 -2.4375 15.5625 C-2.92431222 18.53746357 -3.47123712 20.45206186 -5 23 C-5.66 23 -6.32 23 -7 23 C-5.48526781 15.01323028 -2.83197448 7.59877122 0 0 Z " fill="#E1FEF4" transform="translate(24,153)"/>
<path d="M0 0 C0.86625 0.4640625 0.86625 0.4640625 1.75 0.9375 C3.88583391 2.06861368 3.88583391 2.06861368 5.92578125 2.33203125 C8.65299995 3.21028812 9.6403904 4.5420039 11.4375 6.75 C14.16021422 10.01256273 16.95071971 13.04312214 20 16 C16.07158968 14.28192374 12.80936699 11.72691311 9.4375 9.125 C8.86064453 8.69058594 8.28378906 8.25617188 7.68945312 7.80859375 C4.63959831 5.4657987 2.11041602 3.22946223 0 0 Z " fill="#DEFEF5" transform="translate(90,425)"/>
<path d="M0 0 C6.44070471 -0.10655578 12.62641289 0.03794912 19 1 C19 1.66 19 2.32 19 3 C12.56688704 3.09507063 6.34241995 3.15316726 0 2 C0 1.34 0 0.68 0 0 Z " fill="#303030" transform="translate(141,397)"/>
<path d="M0 0 C4.29 0 8.58 0 13 0 C13 0.99 13 1.98 13 3 C8.71 3 4.42 3 0 3 C0 2.01 0 1.02 0 0 Z " fill="#F6F6F6" transform="translate(262,282)"/>
<path d="M0 0 C0.66 0.99 1.32 1.98 2 3 C1.171875 5.5234375 1.171875 5.5234375 -0.25 8.375 C-1.96926856 11.88114881 -3.59494897 15.35482045 -5 19 C-5.33 19 -5.66 19 -6 19 C-5.59524765 11.84937514 -3.17476348 6.37295696 0 0 Z " fill="#252525" transform="translate(67,116)"/>
<path d="M0 0 C5.94 0.99 5.94 0.99 12 2 C11.67 2.99 11.34 3.98 11 5 C9.54119891 4.85892253 8.08296449 4.71197585 6.625 4.5625 C5.40683594 4.44068359 5.40683594 4.44068359 4.1640625 4.31640625 C2 4 2 4 0 3 C0 2.01 0 1.02 0 0 Z " fill="#191919" transform="translate(229,174)"/>
<path d="M0 0 C5.23570106 3.9587008 9.3607605 8.51960679 13 14 C13 14.66 13 15.32 13 16 C12.34 16 11.68 16 11 16 C9.2734375 14.1015625 9.2734375 14.1015625 7.375 11.625 C6.74335938 10.81289062 6.11171875 10.00078125 5.4609375 9.1640625 C4 7 4 7 4 5 C2.68 4.34 1.36 3.68 0 3 C0 2.01 0 1.02 0 0 Z " fill="#DFFEF3" transform="translate(433,83)"/>
<path d="M0 0 C5.80342274 1.48805711 10.17590879 4.59097555 15 8 C14.01 8.33 13.02 8.66 12 9 C10.64082143 8.03542166 9.30915279 7.03145371 8 6 C5.85266073 5.29485154 5.85266073 5.29485154 4 5 C4 4.34 4 3.68 4 3 C3.01 3 2.02 3 1 3 C0.67 2.01 0.34 1.02 0 0 Z " fill="#EAFEF5" transform="translate(364,28)"/>
<path d="M0 0 C3.78239671 0.65690619 7.21841526 1.720131 10.8125 3.0625 C11.78832031 3.42472656 12.76414062 3.78695313 13.76953125 4.16015625 C14.50558594 4.43730469 15.24164063 4.71445312 16 5 C14.390625 6.1484375 14.390625 6.1484375 12 7 C8.984375 6.1015625 8.984375 6.1015625 5.75 4.625 C4.67234375 4.14289063 3.5946875 3.66078125 2.484375 3.1640625 C1.66453125 2.77992188 0.8446875 2.39578125 0 2 C0 1.34 0 0.68 0 0 Z " fill="#262626" transform="translate(112,387)"/>
<path d="M0 0 C1.52299523 2.93720508 2.80100302 5.9168649 4 9 C3.01 9.66 2.02 10.32 1 11 C0.32845067 9.71086513 -0.33708859 8.41859796 -1 7.125 C-1.37125 6.40570313 -1.7425 5.68640625 -2.125 4.9453125 C-3 3 -3 3 -3 1 C-2.01 0.67 -1.02 0.34 0 0 Z " fill="#1E1E1E" transform="translate(243,245)"/>
<path d="M0 0 C3.79401205 0.54200172 5.19215244 2.0050566 7.5625 4.9375 C9.67531519 7.53028657 11.17546286 9.11697524 14 11 C14 11.66 14 12.32 14 13 C10.12060491 11.41379873 7.66638913 8.90079013 4.75 5.9375 C3.85796875 5.03902344 2.9659375 4.14054687 2.046875 3.21484375 C0 1 0 1 0 0 Z " fill="#DCFEF6" transform="translate(76,412)"/>
<path d="M0 0 C3.68646141 1.45855647 5.16143971 3.30229045 7.25 6.625 C8.03117187 7.85089844 8.03117187 7.85089844 8.828125 9.1015625 C9.21484375 9.72804688 9.6015625 10.35453125 10 11 C7.32543283 10.62207203 6.19388186 10.20233084 4.296875 8.22265625 C3.78640625 7.50980469 3.2759375 6.79695313 2.75 6.0625 C2.22921875 5.35222656 1.7084375 4.64195313 1.171875 3.91015625 C0 2 0 2 0 0 Z " fill="#212121" transform="translate(417,95)"/>
<path d="M0 0 C0.8125 1.6875 0.8125 1.6875 1 4 C-1.40123201 7.03685225 -3.06049508 8.72858747 -6.8125 9.8125 C-7.534375 9.874375 -8.25625 9.93625 -9 10 C-8.06409496 8.8944811 -7.12620142 7.79064547 -6.1875 6.6875 C-5.66542969 6.07261719 -5.14335938 5.45773438 -4.60546875 4.82421875 C-3.12827531 3.14575321 -1.59960869 1.56117966 0 0 Z " fill="#E7FEF5" transform="translate(79,70)"/>
<path d="M0 0 C3.00770063 2.00513375 4.75308835 3.57099295 6 7 C6 8.32 6 9.64 6 11 C6.66 11 7.32 11 8 11 C7.67 12.32 7.34 13.64 7 15 C5.82823482 12.87767021 4.66245215 10.75242209 3.5 8.625 C3.16613281 8.02171875 2.83226562 7.4184375 2.48828125 6.796875 C0 2.2265625 0 2.2265625 0 0 Z " fill="#E0FEF6" transform="translate(31,347)"/>
<path d="M0 0 C0.33 1.32 0.66 2.64 1 4 C0.50628906 4.40992187 0.01257813 4.81984375 -0.49609375 5.2421875 C-1.13675781 5.78101562 -1.77742188 6.31984375 -2.4375 6.875 C-3.07558594 7.40867187 -3.71367188 7.94234375 -4.37109375 8.4921875 C-6.10805004 9.9222757 -6.10805004 9.9222757 -7 12 C-7.66 11.67 -8.32 11.34 -9 11 C-6.03 7.37 -3.06 3.74 0 0 Z " fill="#E0FEF4" transform="translate(69,80)"/>
<path d="M0 0 C1.43931117 0.45261358 2.87638999 0.91232979 4.3125 1.375 C5.11300781 1.63023438 5.91351563 1.88546875 6.73828125 2.1484375 C9 3 9 3 12 5 C8.30962722 6.37095624 6.29116165 5.60010967 2.75 4.0625 C1.85796875 3.68222656 0.9659375 3.30195312 0.046875 2.91015625 C-0.62859375 2.60980469 -1.3040625 2.30945313 -2 2 C-1.34 1.34 -0.68 0.68 0 0 Z " fill="#272727" transform="translate(373,65)"/>
<path d="M0 0 C4.8274799 1.41292095 8.7162359 3.42974154 13 6 C10.34501768 7.0169313 9.30844625 7.13022151 6.640625 6.00390625 C5.85171875 5.52824219 5.0628125 5.05257812 4.25 4.5625 C3.45078125 4.08941406 2.6515625 3.61632812 1.828125 3.12890625 C1.22484375 2.75636719 0.6215625 2.38382812 0 2 C0 1.34 0 0.68 0 0 Z " fill="#1F1F1F" transform="translate(384,70)"/>
<path d="M0 0 C1.485 0.99 1.485 0.99 3 2 C3.99 1.67 4.98 1.34 6 1 C4.44499019 4.81684226 1.96404505 7.19195732 -1 10 C-0.835 9.0925 -0.67 8.185 -0.5 7.25 C0.10137146 3.88912497 0.10137146 3.88912497 0 0 Z " fill="#E8FEF8" transform="translate(440,386)"/>
<path d="M0 0 C1.46726798 3.81489674 0.43336419 6.29011622 -1 10 C-1.99 9.34 -2.98 8.68 -4 8 C-3.50168276 4.31245243 -2.89932357 2.39509338 0 0 Z " fill="#181818" transform="translate(245,225)"/>
<path d="M0 0 C3.29963329 1.09987776 3.61064772 1.45586748 5.25 4.3125 C5.60578125 4.90675781 5.9615625 5.50101562 6.328125 6.11328125 C7.15994803 8.4491564 6.7945524 9.69274206 6 12 C4.99466333 10.37829621 3.99588093 8.75252763 3 7.125 C2.443125 6.22007813 1.88625 5.31515625 1.3125 4.3828125 C0 2 0 2 0 0 Z " fill="#141414" transform="translate(425,106)"/>
<path d="M0 0 C3.59905908 0.55550695 4.99909799 1.74887248 7.25 4.5625 C8.03117187 5.52349609 8.03117187 5.52349609 8.828125 6.50390625 C9.21484375 6.99761719 9.6015625 7.49132812 10 8 C7 8 7 8 5.17578125 6.50390625 C4.56089844 5.86324219 3.94601562 5.22257812 3.3125 4.5625 C2.68988281 3.92441406 2.06726563 3.28632812 1.42578125 2.62890625 C0 1 0 1 0 0 Z " fill="#131313" transform="translate(408,87)"/>
<path d="M0 0 C0 3 0 3 -1.49609375 4.75390625 C-2.13675781 5.35074219 -2.77742188 5.94757813 -3.4375 6.5625 C-6.0896163 9.00289429 -6.0896163 9.00289429 -8 12 C-8.66 12 -9.32 12 -10 12 C-8.43873668 8.16780823 -5.97133075 5.82638778 -3 3 C-2.401875 2.401875 -1.80375 1.80375 -1.1875 1.1875 C-0.795625 0.795625 -0.40375 0.40375 0 0 Z " fill="#0F0F0F" transform="translate(91,86)"/>
<path d="M0 0 C-1 2 -1 2 -3.28515625 2.8515625 C-4.20167969 3.10679688 -5.11820313 3.36203125 -6.0625 3.625 C-7.44115234 4.01558594 -7.44115234 4.01558594 -8.84765625 4.4140625 C-9.55792969 4.60742188 -10.26820312 4.80078125 -11 5 C-11.66 4.34 -12.32 3.68 -13 3 C-4.57142857 -0.42857143 -4.57142857 -0.42857143 0 0 Z " fill="#252525" transform="translate(134,64)"/>
<path d="M0 0 C-1.45365269 1.17249353 -2.91307419 2.33783816 -4.375 3.5 C-5.18710937 4.1496875 -5.99921875 4.799375 -6.8359375 5.46875 C-9 7 -9 7 -11 7 C-11 5 -11 5 -9.3125 3 C-6.45734438 0.53067622 -3.67101264 -1.83550632 0 0 Z " fill="#DCFEF3" transform="translate(403,433)"/>
<path d="M0 0 C0.99 0 1.98 0 3 0 C3.39063507 1.43333021 3.76198474 2.87192679 4.125 4.3125 C4.33382813 5.11300781 4.54265625 5.91351563 4.7578125 6.73828125 C5 9 5 9 3 12 C2.01 8.04 1.02 4.08 0 0 Z " fill="#313131" transform="translate(436,129)"/>
<path d="M0 0 C-4.46236469 1.80619523 -7.31034294 2.11658501 -12 1 C-7.39518076 -1.46686745 -4.70856975 -2.85877449 0 0 Z " fill="#323232" transform="translate(363,395)"/>
<path d="M0 0 C0.66 0.33 1.32 0.66 2 1 C-1.3 3.31 -4.6 5.62 -8 8 C-8.66 7.67 -9.32 7.34 -10 7 C-7.01767477 3.67356033 -4.13629913 1.70847138 0 0 Z " fill="#E1FEF6" transform="translate(389,441)"/>
<path d="M0 0 C-0.33 0.99 -0.66 1.98 -1 3 C-4.80269732 4.6900877 -7.05272168 5.19873962 -11 4 C-9.5437455 3.32880451 -8.08492133 2.66318193 -6.625 2 C-5.81289063 1.62875 -5.00078125 1.2575 -4.1640625 0.875 C-2 0 -2 0 0 0 Z " fill="#1B1B1B" transform="translate(372,389)"/>
<path d="M0 0 C0.33 0 0.66 0 1 0 C0.88490339 1.41750563 0.75746342 2.83401169 0.625 4.25 C0.55539062 5.03890625 0.48578125 5.8278125 0.4140625 6.640625 C0 9 0 9 -2 13 C-2.33 10.03 -2.66 7.06 -3 4 C-2.34 3.67 -1.68 3.34 -1 3 C-0.67 2.01 -0.34 1.02 0 0 Z " fill="#DFFEF3" transform="translate(487,293)"/>
<path d="M0 0 C0.99 0.33 1.98 0.66 3 1 C-0.96 4.465 -0.96 4.465 -5 8 C-5.33 7.34 -5.66 6.68 -6 6 C-5.67 5.01 -5.34 4.02 -5 3 C-3.67696283 2.6278958 -2.34262065 2.29369827 -1 2 C-0.67 1.34 -0.34 0.68 0 0 Z " fill="#E1FFF7" transform="translate(413,421)"/>
<path d="M0 0 C0 3.39593478 -0.52165948 4.06619881 -2.5 6.6875 C-2.9640625 7.31011719 -3.428125 7.93273437 -3.90625 8.57421875 C-4.2671875 9.04472656 -4.628125 9.51523437 -5 10 C-5.33 9.01 -5.66 8.02 -6 7 C-4.78515625 5.17578125 -4.78515625 5.17578125 -3.0625 3.3125 C-2.49660156 2.68988281 -1.93070312 2.06726563 -1.34765625 1.42578125 C-0.90292969 0.95527344 -0.45820313 0.48476563 0 0 Z " fill="#DFFEF4" transform="translate(454,374)"/>
<path d="M0 0 C1.41750563 0.11509661 2.83401169 0.24253658 4.25 0.375 C5.03890625 0.44460937 5.8278125 0.51421875 6.640625 0.5859375 C9.085877 1.01507113 10.84836903 1.78600638 13 3 C11.20906809 3.08086147 9.41710372 3.13912702 7.625 3.1875 C6.12839844 3.23970703 6.12839844 3.23970703 4.6015625 3.29296875 C3.74304688 3.19628906 2.88453125 3.09960938 2 3 C1.34 2.01 0.68 1.02 0 0 Z " fill="#DFFEF4" transform="translate(299,5)"/>
<path d="M0 0 C0.33 0 0.66 0 1 0 C1.3125 2.1875 1.3125 2.1875 1 5 C-1.5 7.8125 -1.5 7.8125 -4 10 C-2.8905928 6.51329166 -1.73662334 3.22515763 0 0 Z " fill="#E0FFF5" transform="translate(34,131)"/>
</svg>
